<?xml version="1.0" standalone="no"?>
<!DOCTYPE svg PUBLIC "-//W3C//DTD SVG 20010904//EN"
 "http://www.w3.org/TR/2001/REC-SVG-20010904/DTD/svg10.dtd">
<svg version="1.0" xmlns="http://www.w3.org/2000/svg"
 width="500.000000pt" height="500.000000pt" viewBox="0 0 500.000000 500.000000"
 preserveAspectRatio="xMidYMid meet">

<g transform="translate(0.000000,500.000000) scale(0.100000,-0.100000)"
fill="#000000" stroke="none">
<path d="M2130 3194 l0 -416 29 -26 c38 -36 112 -75 104 -56 -3 8 -10 14 -17
14 -6 0 -5 4 3 9 9 6 11 17 7 32 -4 13 -11 76 -16 139 -5 63 -16 187 -24 275
-35 345 -37 377 -25 392 10 11 8 12 -7 7 -10 -4 -16 -4 -12 1 6 7 -27 45 -39
45 -1 0 -3 -187 -3 -416z"/>
<path d="M2330 3032 l0 -390 63 -30 c34 -16 65 -28 68 -26 3 2 2 27 -3 56 -5
29 -12 95 -15 146 -3 50 -9 92 -14 92 -5 0 -9 55 -9 123 0 72 -4 116 -9 108
-5 -8 -11 32 -16 103 -5 76 -11 116 -18 116 -8 0 -8 3 -2 8 15 11 17 32 3 45
-51 48 -48 73 -48 -351z"/>
<path d="M2530 3305 c0 -2 10 -10 23 -16 20 -11 21 -11 8 4 -13 16 -31 23 -31
12z"/>
<path d="M2532 2883 l3 -347 65 -38 c36 -21 69 -38 75 -38 7 0 7 3 0 8 -5 4
-11 18 -11 32 -1 14 -5 43 -8 65 -11 78 -55 441 -61 509 -3 38 -11 78 -17 89
-9 17 -8 19 6 14 24 -10 15 15 -14 35 -14 10 -28 18 -33 18 -4 0 -6 -156 -5
-347z"/>
<path d="M3067 2405 c3 -9 1 -15 -4 -13 -6 2 -27 -17 -47 -42 -44 -52 -118
-109 -175 -134 -32 -15 -40 -25 -46 -54 -4 -20 -13 -49 -21 -64 -8 -15 -12
-28 -9 -28 2 0 33 11 69 24 71 27 137 65 179 104 25 24 26 27 10 34 -12 6 -10
7 9 3 21 -4 31 1 47 22 12 16 26 34 31 41 24 28 -6 10 -33 -20 -16 -19 -26
-25 -23 -15 3 11 0 20 -9 23 -19 8 -19 24 0 24 8 0 15 -4 15 -10 0 -5 4 -10 9
-10 5 0 4 11 -2 25 -7 13 -13 20 -15 15 -7 -19 -19 -10 -17 13 1 15 8 22 23
21 14 -1 19 3 14 14 -4 11 -1 13 7 7 10 -6 11 -3 2 14 -13 24 -23 28 -14 6z
m-46 -83 c-6 -11 -7 -22 -4 -26 3 -3 2 -6 -4 -6 -20 0 -22 13 -5 35 20 27 28
25 13 -3z m-36 -42 c3 -5 1 -10 -4 -10 -6 0 -11 5 -11 10 0 6 2 10 4 10 3 0 8
-4 11 -10z m61 -9 c-3 -5 -16 -11 -28 -14 -22 -6 -22 -5 -4 8 22 17 40 20 32
6z m-85 -58 c13 -16 12 -17 -3 -4 -17 13 -22 21 -14 21 2 0 10 -8 17 -17z m49
3 c0 -3 -4 -8 -10 -11 -5 -3 -10 -1 -10 4 0 6 5 11 10 11 6 0 10 -2 10 -4z"/>
<path d="M3129 2333 c-13 -16 -12 -17 4 -4 9 7 17 15 17 17 0 8 -8 3 -21 -13z"/>
<path d="M2148 2239 c-15 -8 -18 -24 -18 -89 0 -69 3 -81 20 -90 12 -7 86 -10
190 -10 170 2 171 2 164 23 -3 12 -18 38 -34 57 l-27 35 -102 3 c-99 3 -101 3
-101 27 0 46 -49 69 -92 44z"/>
<path d="M1830 1552 c0 -60 22 -94 58 -90 33 4 52 38 52 96 0 30 -4 42 -15 42
-10 0 -15 -15 -17 -57 -3 -50 -6 -58 -23 -58 -17 0 -20 8 -23 58 -2 42 -7 57
-17 57 -11 0 -15 -13 -15 -48z"/>
<path d="M1970 1530 c0 -40 4 -70 10 -70 6 0 10 26 10 57 l0 57 35 -34 c19
-18 32 -37 30 -41 -7 -10 5 -39 16 -39 5 0 9 32 9 71 0 52 -3 70 -12 67 -7 -3
-14 -10 -14 -16 -1 -7 -2 -17 -3 -23 0 -5 -16 1 -34 15 -19 15 -37 26 -40 26
-4 0 -7 -31 -7 -70z"/>
<path d="M2110 1530 c0 -40 4 -70 10 -70 6 0 10 30 10 70 0 40 -4 70 -10 70
-6 0 -10 -30 -10 -70z"/>
<path d="M2176 1578 c-42 -60 -4 -118 76 -116 29 1 45 5 39 11 -5 5 -4 20 2
38 9 24 8 33 -9 56 -29 38 -85 44 -108 11z m90 -23 c17 -26 12 -45 -13 -45 -9
0 -13 -6 -9 -15 7 -20 -28 -20 -48 1 -19 18 -21 55 -4 72 20 20 56 14 74 -13z"/>
<path d="M2330 1538 c5 -58 7 -63 34 -73 24 -8 31 -6 47 14 20 25 28 121 9
121 -5 0 -10 -19 -10 -43 0 -50 -19 -83 -44 -74 -12 5 -16 20 -16 62 0 37 -4
55 -12 55 -10 0 -12 -16 -8 -62z"/>
<path d="M2460 1530 l0 -70 51 0 c31 0 48 4 44 10 -3 6 -22 10 -41 10 -30 0
-34 3 -34 25 0 22 4 25 35 25 19 0 35 5 35 10 0 6 -16 10 -35 10 -24 0 -35 5
-35 15 0 10 11 15 35 15 19 0 35 5 35 10 0 6 -20 10 -45 10 l-45 0 0 -70z"/>
</g>
</svg>
